<svg xmlns="http://www.w3.org/2000/svg" viewBox="0 0 598.46 602.24">
    <style>
    path {
        fill: light-dark(#000, #fff);
    }
    @media (prefers-color-scheme: dark) {
        path {
            fill: #fff;
        }
    }
    </style>
    <path d="M479.48,588l-.95-1.51-166.33-263.81c-.47-.74-1.53-.77-2.04-.06l-190.71,264.52-.41-.64L5.89,410.86c-.23-.35-.26-.8-.08-1.18l84.6-183.18.94.43-49.8,107.82c-21.7,46.99-17.87,101.81,10.16,145.32l50.93,79.05c8.1,12.58,26.32,13.05,35.07.92l172.44-239.18c.29-.41.31-.95.04-1.38l-21.81-34.59c-.47-.74-1.53-.77-2.04-.06l-165.15,229.7c-.7.97-2.23.48-2.23-.72V14.25l.95,1.51,166.58,264.2c.47.74,1.53.77,2.04.06L477.93,16.59c.51-.7,1.56-.68,2.03.05l112.95,175.32-.13.26-86.3,177.7-.93-.45,49.03-100.95c23.07-47.5,19.69-103.58-8.91-147.97l-49.86-77.39c-8.11-12.59-26.35-13.05-35.08-.9l-172.2,239.51c-.29.41-.31.95-.04,1.37l21.81,34.59c.47.74,1.53.77,2.04.06l164.9-228.73c.7-.97,2.23-.47,2.23.72v498.2ZM312.31,320.93l126.94,201.33c11.35,18.01,39.19,9.96,39.19-11.32V154.94c0-20.61-26.4-29.13-38.45-12.42l-127.64,177.03c-.29.41-.31.95-.04,1.38ZM119.99,91.31v357.23c0,20.62,26.43,29.14,38.47,12.39l127.87-177.85c.29-.41.31-.95.04-1.37l-127.19-201.73c-11.35-18.01-39.19-9.96-39.19,11.32Z"/><path d="M484.48,601c0,1.25-1.63,1.72-2.3.66l-7.89-12.51-162.37-257.53c-.47-.75-1.54-.78-2.06-.06l-189.58,262.95c-.51.71-1.58.68-2.05-.05l-3.4-5.26L.2,411.27c-.23-.36-.26-.81-.08-1.19l87.33-189.07c.29-.62,1.03-.9,1.65-.61l7.76,3.58c.62.29.9,1.03.61,1.65l-51.66,111.85c-20.92,45.3-17.28,97.38,9.74,139.33l52.27,81.13c2.73,4.24,7.18,6.74,12.22,6.87,5.04.14,9.61-2.14,12.56-6.22l171.51-237.9c.3-.41.31-.96.04-1.39l-16.04-25.43c-.47-.75-1.55-.78-2.06-.06l-169.85,236.23c-.7.98-2.25.48-2.25-.73V1.25c0-1.25,1.63-1.72,2.3-.66l7.89,12.52,162.61,257.91c.47.75,1.55.78,2.06.06L478.14,7.73c.51-.71,1.58-.68,2.05.05l118.06,183.25c.24.37.26.83.07,1.22l-1.05,2.16-87.94,181.08c-.3.62-1.04.88-1.66.58l-7.69-3.73c-.62-.3-.88-1.04-.58-1.66l50.97-104.95c21.97-45.24,18.7-99.6-8.54-141.87l-51.21-79.49c-2.73-4.24-7.19-6.74-12.23-6.87-5.02-.14-9.62,2.14-12.56,6.24l-171.28,238.23c-.3.41-.31.96-.04,1.39l16.05,25.45c.47.75,1.54.78,2.06.06l169.59-235.23c.71-.98,2.25-.48,2.25.73v526.64ZM118.69,576.72h0c.47.74,1.54.77,2.05.06h0c.59-.82.02-1.95-.98-1.98h0c-1-.03-1.62,1.08-1.08,1.92ZM456.49,542.16l15.69,24.89c.66,1.05,2.3.58,2.3-.66v-29.43c0-1-1.11-1.57-1.95-1.02-2.13,1.41-4.53,2.52-7.14,3.28-2.62.76-5.24,1.09-7.79,1.04-1-.02-1.64,1.05-1.11,1.9ZM318.39,319.74c-.3.41-.31.96-.04,1.39l127.41,202.07c4.43,7.03,11.61,7.93,16.85,6.41,5.24-1.51,10.84-6.09,10.84-14.41V151.13c0-8.05-5.37-12.65-10.39-14.27-5.03-1.62-12.07-1.03-16.78,5.5l-127.88,177.38ZM123.95,474.09v24.17c0,1.21,1.55,1.71,2.25.73l14.11-19.63c.59-.81.02-1.93-.99-1.96-2.32-.08-4.68-.49-7.01-1.24-2.35-.76-4.51-1.81-6.46-3.11-.82-.55-1.91.07-1.91,1.05ZM140.25,72.01c-1.55,0-3.06.23-4.43.63-5.24,1.51-10.84,6.09-10.84,14.41v365.31c0,8.06,5.37,12.66,10.4,14.28,5.03,1.62,12.08,1.02,16.78-5.52l128.12-178.2c.3-.41.31-.96.04-1.39l-127.66-202.47c-3.27-5.19-8.05-7.04-12.43-7.04ZM11.58,410.47l11.31,17.55c.74,1.14,2.52.44,2.26-.9-1.13-5.95-1.92-11.98-2.34-18.04s-.49-12.14-.2-18.2c.07-1.36-1.8-1.81-2.37-.57l-8.76,18.96c-.18.39-.15.84.08,1.19ZM574.51,172.63c-.74-1.14-2.52-.44-2.27.89,1.22,6.44,2.04,12.97,2.43,19.54.4,6.57.37,13.15-.07,19.69-.09,1.36,1.76,1.84,2.36.61l9.92-20.43c.19-.39.16-.85-.07-1.22l-12.3-19.09ZM458.22,126.08c2.61,0,5.27.41,7.9,1.26,2.34.76,4.5,1.81,6.44,3.11.82.55,1.91-.07,1.91-1.05v-24.07c0-1.21-1.55-1.71-2.25-.73l-15.52,21.53c.5-.03,1.01-.05,1.52-.05ZM123.95,35.86v29.43c0,1,1.11,1.57,1.95,1.02,2.13-1.41,4.53-2.52,7.14-3.28,2.62-.76,5.24-1.09,7.79-1.04,1,.02,1.64-1.05,1.11-1.9l-15.7-24.89c-.66-1.05-2.3-.58-2.3.66ZM478.03,27.48c.21,0,.43,0,.64,0h0c1.01.03,1.63-1.09,1.09-1.93v-.02c-.48-.74-1.55-.76-2.06-.05l-1.48,2.06c.6-.04,1.21-.07,1.82-.07Z"/>
</svg>