<svg xmlns="http://www.w3.org/2000/svg" width="190" height="206" viewBox="0 0 190 206" fill="none">
<path fill-rule="evenodd" clip-rule="evenodd" d="M15.9608 37.529C17.5515 35.9855 19.4522 35.119 21.6674 34.9346C32.5867 35.7381 43.5008 36.2219 54.4096 36.386C60.1051 35.5961 65.7559 34.5022 71.3706 33.1144C72.4352 33.6845 73.1508 34.5382 73.5262 35.686C72.9125 39.7383 71.6202 43.5976 69.6502 47.2544C69.1071 48.3927 69.1662 49.5079 69.8319 50.605C76.8312 62.3393 85.2699 72.9284 95.1437 82.3671C101.438 87.1701 108.238 91.1029 115.543 94.1656C123.986 96.7377 132.526 98.9229 141.168 100.707C143.868 101.255 146.222 102.495 148.225 104.425C148.344 104.911 148.453 105.397 148.573 105.884C147.872 107.076 147.059 108.195 146.133 109.243C140.217 114.815 133.903 119.819 127.187 124.249C137.742 137.697 143.071 152.933 143.174 169.958C143.239 178.258 142.361 186.437 140.538 194.498C139.735 196.494 138.351 197.803 136.382 198.42C132.9 187.652 128.26 177.241 122.457 167.183C101.296 133.334 75.2306 103.806 44.2643 78.6055C41.0346 81.7331 38.2651 85.2195 35.9598 89.0697C34.579 90.1397 33.2342 90.1023 31.921 88.9526C27.7015 73.1539 22.4712 57.6861 16.2332 42.555C15.92 40.8472 15.8292 39.1719 15.9608 37.529Z" fill="currentColor"/>
<path fill-rule="evenodd" clip-rule="evenodd" d="M20.0068 40.2663C21.7965 39.8607 23.6435 39.6259 25.547 39.5628C39.7319 41.692 53.8136 41.4207 67.7775 38.7525C67.0044 41.7999 66.025 44.8102 64.8393 47.7833C64.3849 49.3201 64.5773 50.7614 65.4105 52.1209C72.8612 65.1145 82.1711 76.5758 93.3507 86.4961C99.1197 91.2053 105.456 94.9401 112.373 97.6972C122.651 100.588 132.972 103.32 143.33 105.899C137.678 111.723 131.364 116.727 124.384 120.905C123.185 121.762 122.523 122.895 122.418 124.305C136.086 142.814 141.187 163.347 137.72 185.913C137.333 185.799 136.946 185.686 136.559 185.573C129.688 169.755 120.983 155.019 110.438 141.353C92.0523 117.017 71.0227 95.2388 47.3495 76.0181C46.7998 74.4472 46.0481 73.0282 45.1031 71.7713C41.1152 74.615 37.8603 78.2192 35.3389 82.5835C35.0254 82.5573 34.707 82.5264 34.3935 82.5003C31.0693 67.9128 26.2766 53.8382 20.0068 40.2663Z" fill="transparent"/>
</svg>