<svg xmlns="http://www.w3.org/2000/svg" width="184" height="378" viewBox="0 0 184 378" fill="none">
<path d="M31.0027 20.9718C44.7323 13.4802 57.9181 5.66437 73.0066 2.09144C88.9454 -1.68281 98.862 3.48221 104.445 18.6646C110.636 35.4991 112.911 53.325 117.378 70.6014C121.874 87.9934 125.792 105.535 129.965 123.01C141.113 169.687 152.243 216.367 163.442 263.031C164.565 267.711 166.081 272.298 167.474 276.911C168.168 279.207 169.095 281.761 166.227 282.972C162.944 284.357 161.977 281.534 160.931 279.241C160.724 278.789 160.507 278.342 160.097 277.471C152.442 282.416 144.853 287.356 137.226 292.235C126.581 299.044 115.903 305.801 105.25 312.598C103.528 313.697 101.753 314.974 99.8343 313.297C98.0431 311.731 98.8247 310.099 100.121 308.499C101.152 307.228 100.115 305.99 99.699 304.768C88.574 272.07 77.459 239.368 66.3085 206.679C65.8075 205.21 65.6081 203.592 63.3941 203.157C61.47 202.778 60.8647 200.768 61.724 199.141C62.8068 197.092 62.3398 195.411 61.6604 193.454C46.9434 151.069 30.4312 109.401 11.8057 68.5792C8.84463 62.0895 5.62124 55.7185 2.46878 49.3174C-1.41001 41.4414 -0.676607 39.0027 6.88211 34.7286C14.8327 30.233 22.7614 25.6989 31.0027 20.9718Z" fill="currentColor"/>
<path d="M159.786 311.109C162.987 312.624 165.893 313.866 168.684 315.327C180.537 321.528 185.84 333.109 182.242 345.902C179.226 356.625 173.188 365.509 164.038 372.013C154.09 379.085 141.567 379.896 133.087 374.261C124.28 368.409 119.178 354.362 121.772 343.105C125.261 327.966 135.858 318.183 151.75 315.992C149.94 315.362 148.735 314.932 147.524 314.523C145.217 313.744 142.773 312.764 143.638 309.768C144.517 306.724 147.07 307.233 149.434 307.945C152.767 308.947 156.103 309.94 159.786 311.109Z" fill="currentColor"/>
<path d="M96.6787 120.61C98.8107 117.402 100.793 114.526 102.671 111.584C103.763 109.875 104.038 107.982 102.067 106.775C100.246 105.661 98.5338 106.364 97.2627 108.019C96.5547 108.94 95.8856 109.894 95.2317 110.855C83.1691 128.587 71.1116 146.323 58.8356 164.377C52.5559 148.298 46.3621 132.439 39.7871 115.604C44.4904 117.948 46.1259 114.836 48.0081 112.161C64.9554 88.0814 81.9002 63.9997 98.8551 39.9252C99.7957 38.5898 100.821 37.3142 102.16 35.5449C105.998 51.8082 109.663 67.4475 113.383 83.0737C116.925 97.9472 120.504 112.812 124.115 127.668C124.723 130.168 124.895 132.362 123.355 134.769C107.758 159.143 92.2752 183.59 76.7506 208.011C76.3242 208.682 75.7897 209.284 74.9994 210.319C73.5707 206.342 72.4675 202.748 70.9834 199.319C69.96 196.954 71.3091 195.583 72.3964 193.926C86.8124 171.956 101.243 149.996 115.563 127.964C117.228 125.403 120.995 122.062 117.207 119.419C113.136 116.579 111.692 121.583 110.071 124.068C95.9924 145.65 82.0615 167.328 67.7045 189.569C65.5844 183.778 63.6578 178.517 61.7334 173.256C61.2996 172.071 61.65 171.269 62.4259 170.158C73.8514 153.794 85.1539 137.344 96.6787 120.61Z" fill="transparent"/>
<path d="M95.6712 224.587C106.26 208.036 116.719 191.831 127.013 175.522C128.538 173.105 131.957 169.799 128.052 167.416C124.187 165.057 122.804 169.574 121.253 172.018C108.435 192.218 95.7287 212.489 82.7073 233.186C80.9944 228.209 79.3799 223.555 77.7985 218.891C77.4878 217.974 77.2547 217.17 78.0472 216.159C90.1669 200.698 99.7161 183.521 110.594 167.229C116.11 158.968 121.4 150.557 127.275 141.467C130.782 156.228 134.083 170.085 137.364 183.947C138.818 190.093 141.958 196.483 141.161 202.33C140.412 207.816 135.422 212.697 132.4 217.903C120.977 237.576 109.596 257.273 98.1557 277.038C97.8522 276.693 97.6301 276.522 97.5125 276.295C93.5268 268.632 93.0921 262.224 99.0698 254.25C110.408 239.125 119.921 222.631 130.188 206.703C130.998 205.445 131.842 204.203 132.557 202.892C133.782 200.648 136.264 198.039 132.93 196.005C129.689 194.028 128.228 197.254 126.855 199.405C115.857 216.64 104.928 233.919 93.9755 251.184C93.0018 252.719 92.0158 254.246 90.5015 256.612C88.6376 251.12 86.9999 246.33 85.3951 241.529C85.137 240.757 84.9882 240.009 85.7455 239.275C89.9858 235.164 92.0502 229.565 95.6712 224.587Z" fill="transparent"/>
<path d="M114.513 289.411C124.371 272.62 134.102 256.176 143.76 239.689C145.208 237.217 147.916 233.973 144.427 231.866C140.764 229.654 139.357 233.818 137.956 236.218C127.41 254.296 116.986 272.445 106.518 290.568C105.78 291.847 104.993 293.097 103.858 294.974C102.864 292.085 102.153 289.781 101.28 287.541C100.128 284.59 98.4637 281.777 103.196 280.13C104.435 279.698 105.119 277.536 105.959 276.11C117.513 256.499 129.047 236.874 140.597 217.26C141.506 215.717 142.504 214.226 144.044 211.787C147.328 225.676 150.365 238.638 153.466 251.585C154.781 257.078 156.249 262.533 157.601 268.016C157.92 269.309 158.923 270.424 156.875 271.728C140.474 282.175 124.198 292.819 107.876 303.391C107.611 303.562 107.244 303.576 105.767 303.98C108.913 298.768 111.638 294.256 114.513 289.411Z" fill="transparent"/>
<path d="M66.8231 73.7385C57.6751 87.6883 47.5439 100.581 39.3267 114.651C37.3197 110.044 34.9895 104.606 32.5739 99.2062C31.9002 97.7001 32.6894 96.7952 33.4289 95.6451C51.3176 67.8218 69.2276 40.0116 86.9381 12.075C89.0533 8.73872 90.4151 9.58666 92.4874 11.6448C96.3083 15.4392 97.7412 20.4366 99.3957 25.2983C100.164 27.5568 98.2041 28.9804 97.1101 30.5496C87.1226 44.8752 77.075 59.1588 66.8231 73.7385Z" fill="transparent"/>
<path d="M66.085 31.9915C53.6887 51.6835 41.507 71.0822 29.2682 90.5717C28.8964 90.162 28.7664 90.0702 28.7059 89.9449C22.9991 78.1273 23.0267 78.1444 30.1132 67.0045C41.5305 49.0562 52.9432 31.1045 64.2292 13.0737C65.0529 11.758 66.0353 11.1783 67.2367 10.7998C71.6604 9.40581 76.0918 7.99528 81.7026 7.57227C76.3381 15.9746 71.3187 23.8363 66.085 31.9915Z" fill="transparent"/>
<path d="M53.0874 17.7423C42.3047 35.4631 31.4341 52.9447 20.4912 70.5428C16.4208 65.9738 16.741 62.2925 20.0641 57.4149C27.7087 46.1945 35.8997 35.304 42.0531 23.062C43.6613 19.8626 48.3971 19.1486 52.1349 17.4199C52.6656 17.4429 52.8328 17.473 53.0874 17.7423Z" fill="transparent"/>
<path d="M7.44592 41.6866C15.1466 37.3587 22.5051 33.2243 29.8636 29.0898C30.1726 29.3098 30.4816 29.5298 30.7905 29.7498C25.1606 38.4593 19.5308 47.1689 13.4619 56.5576C10.7556 51.592 8.37744 47.2522 6.07263 42.8737C6.01062 42.756 6.74231 42.2206 7.44592 41.6866Z" fill="transparent"/>
<path d="M52.6579 17.5681C52.7106 17.1952 52.9222 16.9765 53.1338 16.7578C53.2339 17.0271 53.3341 17.2963 53.3049 17.7741C53.1756 17.9826 52.8169 17.7224 52.6579 17.5681Z" fill="transparent"/>
<path d="M165.668 361.58C162.725 364.596 159.708 366.916 156.214 368.585C143.431 374.689 132.595 369.79 128.747 356.166C125.496 344.661 132.201 329.691 142.962 324.496C144.428 323.788 145.901 322.899 148.181 323.644C144.824 329.05 141.504 334.301 138.291 339.616C137.059 341.654 134.747 344.136 137.753 346.086C140.691 347.991 142.109 345.107 143.468 343.025C146.376 338.569 149.284 334.114 152.166 329.642C154.242 326.42 155.847 322.726 160.314 322.012C161.014 323.932 159.538 325.309 158.66 326.819C152.811 336.866 146.927 346.893 141.041 356.918C139.849 358.948 138.128 361.229 140.925 362.972C143.746 364.731 145.081 362.152 146.278 360.168C153.641 347.962 160.963 335.732 168.294 323.518C175.068 327.893 177.897 335.033 175.854 343.12C174.107 350.039 170.619 356.012 165.668 361.58Z" fill="transparent"/>
<path d="M87.1596 87.0561C91.0679 81.4452 94.7379 76.1081 98.468 70.8132C99.8934 68.79 101.535 65.9835 104.337 67.891C107.277 69.8919 105.504 72.5991 103.927 74.8338C90.7094 93.5648 77.5353 112.325 65.0626 131.566C63.6175 133.796 62.0819 135.966 60.6246 138.188C59.4299 140.009 57.8256 141.507 55.711 140.243C53.2181 138.753 54.2388 136.559 55.4874 134.642C61.5605 125.318 67.5965 115.969 73.747 106.697C78.0622 100.191 82.54 93.7929 87.1596 87.0561Z" fill="currentColor"/>
</svg>