<svg xmlns="http://www.w3.org/2000/svg" width="195" height="242" viewBox="0 0 195 242" fill="none">
<path fill-rule="evenodd" clip-rule="evenodd" d="M73.2686 241.852C70.0836 242.332 67.2496 241.662 64.7686 239.852C63.7686 233.182 62.7686 226.522 61.7686 219.852C47.4016 205.152 33.4016 190.152 19.7686 174.852C-0.359436 147.772 -4.35944 118.442 7.76857 86.852C18.5526 64.062 36.0526 49.232 60.2686 42.352C72.4926 39.822 83.1596 42.652 92.2686 50.852C104.981 27.972 123.648 12.142 148.269 3.35197C164.041 -2.60803 177.541 0.561981 188.769 12.852C193.999 21.812 195.666 31.472 193.769 41.852C189.077 63.232 180.077 82.562 166.769 99.852C150.85 119.772 134.183 139.112 116.769 157.852C102.137 174.762 90.8036 193.762 82.7686 214.852C79.8336 222.592 78.1666 230.592 77.7686 238.852C76.1166 239.752 74.6166 240.752 73.2686 241.852Z" fill="currentColor"/>
<path fill-rule="evenodd" clip-rule="evenodd" d="M68.2689 206.852C54.6819 191.722 42.5159 175.392 31.7689 157.852C19.5669 133.972 20.8999 110.972 35.7689 88.8519C44.2499 78.5419 55.0829 72.2119 68.2689 69.8519C70.0679 69.9319 71.7349 70.4319 73.2689 71.3519C74.0729 73.1219 75.2399 74.6219 76.7689 75.8519C78.8429 82.0819 81.6759 87.9219 85.2689 93.3519C93.2269 98.8819 100.061 97.7119 105.769 89.8519C112.939 60.6519 130.439 40.4919 158.269 29.3519C161.269 28.6819 164.269 28.6819 167.269 29.3519C168.54 34.1719 168.374 39.0119 166.769 43.8519C164.687 50.4319 162.021 56.7619 158.769 62.8519C134.609 96.5019 110.943 130.502 87.7689 164.852C78.8389 177.712 72.3389 191.712 68.2689 206.852Z" fill="transparent"/>
</svg>