<svg xmlns="http://www.w3.org/2000/svg" width="162" height="186" viewBox="0 0 162 186" fill="none">
<path fill-rule="evenodd" clip-rule="evenodd" d="M161.814 3.0005C161.939 7.8335 161.106 12.5005 159.314 17.0005C150.239 38.4825 139.573 59.1495 127.314 79.0005C114.264 100.046 100.43 120.546 85.8137 140.501C83.0767 141.581 81.4097 140.747 80.8137 138C80.8427 136.471 81.5097 135.305 82.8137 134.501C79.5207 130.862 75.8537 127.695 71.8137 125C58.6047 144.92 45.2707 164.754 31.8137 184.5C26.7727 186.31 24.4387 184.644 24.8137 179.5C27.1287 154.722 28.1287 129.888 27.8137 105C19.1577 105.814 10.4907 105.981 1.81369 105.5C0.378688 103.233 0.711681 101.233 2.81369 99.5005C1.79669 98.4515 1.62968 97.2845 2.31369 96.0005C42.5027 65.1545 84.3367 36.6545 127.814 10.5005C134.909 6.6195 142.243 3.2855 149.814 0.500502C154.378 -0.621498 158.378 0.211502 161.814 3.0005Z" fill="#130A44"/>
<path fill-rule="evenodd" clip-rule="evenodd" d="M152.814 12C153.357 12.06 153.69 12.393 153.814 13C148.177 26.273 142.01 39.273 135.314 52C119.73 78.174 103.396 103.841 86.3142 129C81.0752 125.43 76.9082 120.93 73.8142 115.5C72.1472 115.167 70.4812 114.833 68.8142 114.5C65.3092 111.246 61.3092 108.746 56.8142 107C88.8352 75.312 120.835 43.646 152.814 12Z" fill="white"/>
<path fill-rule="evenodd" clip-rule="evenodd" d="M34.8142 149C33.8632 147.581 33.5302 145.915 33.8142 144C34.2512 130.663 34.4182 117.329 34.3142 104C33.2702 102.877 32.6042 101.544 32.3142 100C23.8822 99.323 15.3822 99.157 6.81421 99.5C47.1142 70.346 88.4472 42.679 130.814 16.5C135.36 13.885 140.027 11.885 144.814 10.5C114.508 39.473 84.8412 69.14 55.8142 99.5C53.0382 99.566 50.8722 100.732 49.3142 103C43.1682 117.938 38.3342 133.272 34.8142 149Z" fill="white"/>
<path fill-rule="evenodd" clip-rule="evenodd" d="M66.8142 120.001C56.0832 135.246 45.9162 150.913 36.3142 167.001C40.6142 149.096 45.9472 131.429 52.3142 114.001C53.3632 112.984 54.5302 112.817 55.8142 113.501C59.5082 115.679 63.1752 117.846 66.8142 120.001Z" fill="white"/>
<path fill-rule="evenodd" clip-rule="evenodd" d="M34.8142 149C34.2242 150.266 33.7242 151.599 33.3142 153C32.5092 149.804 32.6762 146.804 33.8142 144C33.5302 145.915 33.8632 147.581 34.8142 149Z" fill="#130A44"/>
</svg>