<svg xmlns="http://www.w3.org/2000/svg" width="51" height="49" viewBox="0 0 51 49" fill="none">
<path fill-rule="evenodd" clip-rule="evenodd" d="M29.5249 48.8509C28.6424 48.9637 27.8371 48.7865 27.1092 48.3141C26.2652 43.5094 25.9077 38.6778 26.0355 33.8194C26.9304 33.1054 27.8248 33.1054 28.7197 33.8194C29.468 38.8496 29.7365 43.8583 29.5249 48.8509Z" fill="currentColor"/>
<path fill-rule="evenodd" clip-rule="evenodd" d="M9.12018 46.7037C7.20312 46.752 6.57663 45.8609 7.24124 44.0195C10.8472 39.9449 14.5154 35.9186 18.2465 31.9406C20.9189 31.5272 21.5454 32.5096 20.1254 34.8932C16.3187 38.7907 12.6504 42.7257 9.12018 46.7037Z" fill="currentColor"/>
<path fill-rule="evenodd" clip-rule="evenodd" d="M46.7035 42.4087C43.1083 41.072 39.9769 38.9246 37.3088 35.9666C36.8176 34.6674 37.2648 33.9534 38.6509 33.8192C39.4229 33.9373 40.1385 34.2058 40.7983 34.6245C42.5876 36.0579 44.3774 37.4859 46.1667 38.9192C47.3392 39.9392 47.5179 41.0988 46.7035 42.4087Z" fill="currentColor"/>
<path fill-rule="evenodd" clip-rule="evenodd" d="M46.7027 27.3773C44.1908 27.4686 41.6859 27.3773 39.1869 27.1089C38.3865 26.0245 38.5653 25.1279 39.7238 24.4247C43.3067 24.0543 46.8858 23.8717 50.4606 23.8878C51.1762 24.7844 51.1762 25.6755 50.4606 26.5721C49.0992 26.6741 47.8467 26.9425 46.7027 27.3773Z" fill="currentColor"/>
<path fill-rule="evenodd" clip-rule="evenodd" d="M6.4419 27.3773C4.46525 27.4686 2.49719 27.3773 0.536649 27.1089C-0.178961 26.3949 -0.178961 25.6755 0.536649 24.9615C5.24958 24.0006 9.99149 23.1953 14.7629 22.5457C16.469 23.0182 16.9162 24.006 16.105 25.4984C12.8067 26.105 9.58564 26.7331 6.4419 27.3773Z" fill="currentColor"/>
<path fill-rule="evenodd" clip-rule="evenodd" d="M37.5789 17.7143C35.3365 18.0686 34.5313 17.1721 35.1631 15.0301C38.4738 12.4371 41.784 9.83881 45.0947 7.24586C47.3317 6.61776 48.137 7.42302 47.5105 9.66165C44.0988 12.2707 40.7881 14.9549 37.5789 17.7143Z" fill="currentColor"/>
<path fill-rule="evenodd" clip-rule="evenodd" d="M20.9345 16.6405C19.9639 16.6459 19.069 16.3775 18.2503 15.8353C15.6815 13.7846 13.2658 11.5513 11.003 9.12477C10.3298 7.18678 10.9557 6.38152 12.8819 6.70899C15.6558 9.12477 18.4291 11.5406 21.203 13.9563C21.5465 14.9065 21.4569 15.7977 20.9345 16.6405Z" fill="currentColor"/>
<path fill-rule="evenodd" clip-rule="evenodd" d="M29.521 14.4934C28.8113 14.5846 28.1848 14.4075 27.6421 13.9565C27.284 9.48463 27.284 5.00738 27.6421 0.535491C28.537 -0.178508 29.4314 -0.178508 30.3263 0.535491C30.6844 4.83022 30.6844 9.12495 30.3263 13.4197C29.9414 13.7096 29.673 14.0693 29.521 14.4934Z" fill="currentColor"/>
</svg>