<svg xmlns="http://www.w3.org/2000/svg" width="65" height="53" viewBox="0 0 65 53" fill="none">
<path fill-rule="evenodd" clip-rule="evenodd" d="M23.7028 50.5467C16.7672 49.1552 14.6925 45.2026 17.4902 38.6868C18.4634 38.4592 19.4238 38.5395 20.3779 38.9239C18.0168 46.1739 20.3679 48.4136 27.4313 45.6432C27.8484 44.4672 28.4113 43.3677 29.1214 42.3399C30.3873 41.901 31.2642 42.3131 31.7408 43.5784C31.7164 45.2514 31.1488 46.7091 30.0328 47.9501C28.086 49.328 25.9769 50.1902 23.7028 50.5467Z" fill="currentColor"/>
<path fill-rule="evenodd" clip-rule="evenodd" d="M12.5106 28.2299C4.97016 26.7728 2.04774 22.3194 3.74572 14.8811C6.39061 4.89004 12.5241 1.34463 22.1549 4.25252C25.7669 7.47406 26.8533 11.4301 25.4127 16.1257C23.1452 22.3651 18.8441 26.4015 12.5106 28.2299Z" fill="currentColor"/>
<path fill-rule="evenodd" clip-rule="evenodd" d="M50.5933 36.2883C43.8305 34.7123 41.3632 30.5633 43.1962 23.8426C44.7002 18.0693 48.2456 14.19 53.8273 12.2031C62.0546 12.5188 64.8802 16.6725 62.2928 24.6667C60.486 30.7291 56.5823 34.6037 50.5933 36.2883Z" fill="currentColor"/>
<path fill-rule="evenodd" clip-rule="evenodd" d="M14.6289 14.3102C12.5293 13.855 11.6311 12.5411 11.9292 10.3673C12.5194 9.06587 13.213 7.81901 14.0037 6.63037C15.3961 6.52052 16.7819 6.35524 18.161 6.13453C19.2382 6.90073 19.7665 7.93303 19.7432 9.24146C18.4586 11.3924 16.7554 13.0824 14.6289 14.3102Z" fill="#F0F0F1"/>
<path fill-rule="evenodd" clip-rule="evenodd" d="M53.85 22.136C53.0139 21.912 52.1828 21.6893 51.3468 21.4653C51.6589 18.9786 52.7418 16.9399 54.5927 15.3592C56.823 15.2861 57.7705 16.4361 57.4265 18.8016C56.5439 20.2929 55.351 21.4006 53.85 22.136Z" fill="#F1F2F3"/>
</svg>