<svg xmlns="http://www.w3.org/2000/svg" width="64" height="62" viewBox="0 0 64 62" fill="none">
<path fill-rule="evenodd" clip-rule="evenodd" d="M22.9474 56.5883C21.7788 56.6013 20.6964 56.3156 19.7001 55.7224C18.0505 49.834 16.5351 43.9196 15.154 37.9706C10.4025 38.5941 5.63987 38.9578 0.865944 39.053C-0.288788 37.7541 -0.288788 36.4552 0.865944 35.1563C5.94641 32.3117 10.8533 29.2073 15.5869 25.8474C16.9581 20.3617 18.3294 14.876 19.7001 9.39457C20.1543 8.95294 20.6596 8.88366 21.2155 9.17808C22.0204 9.85352 22.6699 10.6459 23.1639 11.5594C24.659 15.5211 25.8856 19.5607 26.8442 23.6826C31.0314 23.99 35.2169 24.3494 39.4003 24.765C40.452 26.0812 40.7403 27.523 40.2662 29.0947C36.9783 30.7963 33.8033 32.6754 30.7409 34.7233C29.81 35.3338 28.7994 35.6932 27.7101 35.8058C26.4744 42.8285 24.8867 49.7561 22.9474 56.5883Z" fill="currentColor"/>
<path fill-rule="evenodd" clip-rule="evenodd" d="M49.0679 18.8051C48.6061 18.8103 48.1784 18.6973 47.7847 18.4629C47.1328 16.1361 46.534 13.7989 45.9882 11.4481C44.1106 11.6945 42.2286 11.8382 40.3421 11.8758C39.8858 11.3625 39.8858 10.8493 40.3421 10.336C42.3497 9.2119 44.2887 7.98516 46.1593 6.65747C46.7012 4.48971 47.243 2.32195 47.7847 0.155903C47.9642 -0.0186138 48.1639 -0.0459881 48.3835 0.0703564C48.7016 0.337261 48.9582 0.650364 49.1535 1.01137C49.7442 2.57688 50.229 4.17319 50.6078 5.802C52.2624 5.92348 53.9164 6.06548 55.5695 6.22973C55.9851 6.74986 56.099 7.3196 55.9117 7.94067C54.6124 8.61307 53.3577 9.35562 52.1476 10.1649C51.7797 10.4061 51.3804 10.5481 50.9499 10.5926C50.4616 13.3678 49.8342 16.1053 49.0679 18.8051Z" fill="currentColor"/>
<path fill-rule="evenodd" clip-rule="evenodd" d="M50.3972 61.2093C51.0899 61.217 51.7316 61.0477 52.3221 60.696C53.3 57.2055 54.1983 53.6996 55.017 50.1732C57.8335 50.5428 60.6568 50.7584 63.4866 50.8148C64.1711 50.0449 64.1711 49.2749 63.4866 48.5049C60.475 46.8187 57.5664 44.9785 54.7604 42.9869C53.9475 39.735 53.1347 36.4832 52.3221 33.234C52.0529 32.9722 51.7534 32.9311 51.4239 33.1057C50.9467 33.506 50.5618 33.9757 50.2689 34.5173C49.3827 36.8656 48.6556 39.2602 48.0873 41.7036C45.6052 41.8858 43.1242 42.0988 40.6444 42.3452C40.0209 43.1255 39.85 43.9801 40.131 44.9118C42.0801 45.9204 43.9621 47.0343 45.7775 48.2483C46.3293 48.6102 46.9283 48.8232 47.574 48.8899C48.3065 53.0529 49.2477 57.1593 50.3972 61.2093Z" fill="currentColor"/>
<path fill-rule="evenodd" clip-rule="evenodd" d="M21.6477 52.2587C19.8985 46.7816 18.5996 41.2223 17.751 35.5893C13.4109 35.5763 9.08119 35.7192 4.76188 36.0223C9.27992 33.3768 13.6815 30.5625 17.9675 27.5794C18.9676 23.228 20.0501 18.8983 21.2147 14.5903C22.4158 17.7163 23.4982 20.89 24.462 24.1156C24.8019 24.8906 25.3067 25.5401 25.9774 26.064C30.0244 26.4493 34.0653 26.8823 38.1006 27.3629C34.0372 29.649 29.9239 31.7402 25.7609 33.6409C24.197 39.8021 22.8258 46.0066 21.6477 52.2587Z" fill="transparent"/>
<path fill-rule="evenodd" clip-rule="evenodd" d="M48.5521 17.0941C47.8609 14.9298 47.3476 12.7329 47.0123 10.507C45.2973 10.5019 43.5863 10.5583 41.8795 10.6781C43.6649 9.63271 45.4042 8.5206 47.0978 7.34177C47.4931 5.62227 47.9208 3.91134 48.3811 2.20895C48.8557 3.44425 49.2834 4.69837 49.6643 5.97302C49.7986 6.27927 49.9981 6.53592 50.2631 6.74294C51.8623 6.89521 53.4591 7.06631 55.0537 7.25622C53.448 8.1596 51.8226 8.98598 50.1775 9.73708C49.5595 12.1717 49.0177 14.6235 48.5521 17.0941Z" fill="transparent"/>
<path fill-rule="evenodd" clip-rule="evenodd" d="M51.1708 58.6427C52.2077 55.396 52.9777 52.1006 53.4807 48.7615C56.0534 48.7538 58.62 48.8385 61.1804 49.0181C58.5022 47.45 55.893 45.7817 53.3524 44.0134C52.7595 41.434 52.1179 38.8675 51.4275 36.3137C50.7155 38.1668 50.0739 40.0481 49.5026 41.9601C49.3011 42.4196 49.0019 42.8045 48.6043 43.1151C46.2053 43.3435 43.81 43.6002 41.418 43.8851C43.8267 45.2402 46.2649 46.4798 48.7326 47.6065C49.6597 51.2587 50.4725 54.9366 51.1708 58.6427Z" fill="transparent"/>
</svg>