<svg xmlns="http://www.w3.org/2000/svg" width="153" height="55" viewBox="0 0 153 55" fill="none">
<path fill-rule="evenodd" clip-rule="evenodd" d="M118.955 54.7771C103.345 55.6541 92.6749 48.9871 86.9549 34.7771C83.5649 35.9681 80.2349 37.4681 76.9549 39.2771C70.0849 40.6531 64.0849 38.9861 58.9549 34.2771C57.1149 31.6081 55.1149 29.1081 52.9549 26.7771C47.6449 31.9181 41.6449 36.0851 34.9549 39.2771C19.8349 43.7961 8.33492 39.2961 0.45491 25.7771C-0.285095 23.8361 -0.125092 22.0031 0.95491 20.2771C1.95491 19.6101 2.95491 19.6101 3.95491 20.2771C16.4149 35.431 29.2449 35.597 42.4549 20.7771C45.9149 14.687 49.7449 8.85405 53.9549 3.27705C57.4149 2.15405 60.2449 2.98705 62.4549 5.77705C63.5349 10.0741 64.5349 14.4071 65.4549 18.7771C66.8749 24.2801 70.0449 26.1141 74.9549 24.2771C78.6249 21.2771 82.2849 18.2771 85.9549 15.2771C94.1649 14.4831 98.3349 18.3161 98.4549 26.7771C103.255 38.4341 111.085 40.9341 121.955 34.2771C131.505 26.0181 137.005 15.5181 138.455 2.77705C143.085 -1.50195 147.085 -0.835949 150.455 4.77705C153.645 11.7331 153.645 18.7331 150.455 25.7771C144.485 40.5841 133.985 50.2511 118.955 54.7771Z" fill="currentColor"/>
</svg>